<?xml version="1.0" encoding="UTF-8"?>
<!DOCTYPE svg PUBLIC "-//W3C//DTD SVG 1.1//EN" "http://www.w3.org/Graphics/SVG/1.1/DTD/svg11.dtd">
<svg version="1.2" width="100mm" height="100mm" viewBox="0 0 10000 10000" preserveAspectRatio="xMidYMid" fill-rule="evenodd" stroke-width="28.222" stroke-linejoin="round" xmlns="http://www.w3.org/2000/svg" xmlns:ooo="http://xml.openoffice.org/svg/export" xmlns:xlink="http://www.w3.org/1999/xlink" xmlns:presentation="http://sun.com/xmlns/staroffice/presentation" xmlns:smil="http://www.w3.org/2001/SMIL20/" xmlns:anim="urn:oasis:names:tc:opendocument:xmlns:animation:1.0" xml:space="preserve">
 <defs class="ClipPathGroup">
  <clipPath id="presentation_clip_path" clipPathUnits="userSpaceOnUse">
   <rect x="0" y="0" width="10000" height="10000"/>
  </clipPath>
  <clipPath id="presentation_clip_path_shrink" clipPathUnits="userSpaceOnUse">
   <rect x="10" y="10" width="9980" height="9980"/>
  </clipPath>
 </defs>
 <defs class="TextShapeIndex">
  <g ooo:slide="id1" ooo:id-list="id3 id4 id5 id6 id7 id8 id9 id10"/>
 </defs>
 <defs class="EmbeddedBulletChars">
  <g id="bullet-char-template-57356" transform="scale(0.00048828125,-0.00048828125)">
   <path d="M 580,1141 L 1163,571 580,0 -4,571 580,1141 Z"/>
  </g>
  <g id="bullet-char-template-57354" transform="scale(0.00048828125,-0.00048828125)">
   <path d="M 8,1128 L 1137,1128 1137,0 8,0 8,1128 Z"/>
  </g>
  <g id="bullet-char-template-10146" transform="scale(0.00048828125,-0.00048828125)">
   <path d="M 174,0 L 602,739 174,1481 1456,739 174,0 Z M 1358,739 L 309,1346 659,739 1358,739 Z"/>
  </g>
  <g id="bullet-char-template-10132" transform="scale(0.00048828125,-0.00048828125)">
   <path d="M 2015,739 L 1276,0 717,0 1260,543 174,543 174,936 1260,936 717,1481 1274,1481 2015,739 Z"/>
  </g>
  <g id="bullet-char-template-10007" transform="scale(0.00048828125,-0.00048828125)">
   <path d="M 0,-2 C -7,14 -16,27 -25,37 L 356,567 C 262,823 215,952 215,954 215,979 228,992 255,992 264,992 276,990 289,987 310,991 331,999 354,1012 L 381,999 492,748 772,1049 836,1024 860,1049 C 881,1039 901,1025 922,1006 886,937 835,863 770,784 769,783 710,716 594,584 L 774,223 C 774,196 753,168 711,139 L 727,119 C 717,90 699,76 672,76 641,76 570,178 457,381 L 164,-76 C 142,-110 111,-127 72,-127 30,-127 9,-110 8,-76 1,-67 -2,-52 -2,-32 -2,-23 -1,-13 0,-2 Z"/>
  </g>
  <g id="bullet-char-template-10004" transform="scale(0.00048828125,-0.00048828125)">
   <path d="M 285,-33 C 182,-33 111,30 74,156 52,228 41,333 41,471 41,549 55,616 82,672 116,743 169,778 240,778 293,778 328,747 346,684 L 369,508 C 377,444 397,411 428,410 L 1163,1116 C 1174,1127 1196,1133 1229,1133 1271,1133 1292,1118 1292,1087 L 1292,965 C 1292,929 1282,901 1262,881 L 442,47 C 390,-6 338,-33 285,-33 Z"/>
  </g>
  <g id="bullet-char-template-9679" transform="scale(0.00048828125,-0.00048828125)">
   <path d="M 813,0 C 632,0 489,54 383,161 276,268 223,411 223,592 223,773 276,916 383,1023 489,1130 632,1184 813,1184 992,1184 1136,1130 1245,1023 1353,916 1407,772 1407,592 1407,412 1353,268 1245,161 1136,54 992,0 813,0 Z"/>
  </g>
  <g id="bullet-char-template-8226" transform="scale(0.00048828125,-0.00048828125)">
   <path d="M 346,457 C 273,457 209,483 155,535 101,586 74,649 74,723 74,796 101,859 155,911 209,963 273,989 346,989 419,989 480,963 531,910 582,859 608,796 608,723 608,648 583,586 532,535 482,483 420,457 346,457 Z"/>
  </g>
  <g id="bullet-char-template-8211" transform="scale(0.00048828125,-0.00048828125)">
   <path d="M -4,459 L 1135,459 1135,606 -4,606 -4,459 Z"/>
  </g>
  <g id="bullet-char-template-61548" transform="scale(0.00048828125,-0.00048828125)">
   <path d="M 173,740 C 173,903 231,1043 346,1159 462,1274 601,1332 765,1332 928,1332 1067,1274 1183,1159 1299,1043 1357,903 1357,740 1357,577 1299,437 1183,322 1067,206 928,148 765,148 601,148 462,206 346,322 231,437 173,577 173,740 Z"/>
  </g>
 </defs>
 <g>
  <g id="id2" class="Master_Slide">
   <g id="bg-id2" class="Background"/>
   <g id="bo-id2" class="BackgroundObjects"/>
  </g>
 </g>
 <g class="SlideGroup">
  <g>
   <g id="container-id1">
    <g id="id1" class="Slide" clip-path="url(#presentation_clip_path)">
     <g class="Page">
      <g class="com.sun.star.drawing.CustomShape">
       <g id="id3">
        <rect class="BoundingBox" stroke="none" fill="none" x="994" y="7294" width="1914" height="1814"/>
        <path fill="rgb(238,238,238)" stroke="none" d="M 2801,8201 C 2801,8341 2762,8479 2687,8601 2612,8722 2505,8823 2376,8894 2246,8964 2100,9001 1951,9001 1801,9001 1655,8964 1525,8894 1396,8823 1289,8722 1214,8601 1139,8479 1100,8341 1100,8201 1100,8060 1139,7922 1214,7800 1289,7679 1396,7578 1525,7507 1655,7437 1801,7400 1950,7400 2100,7400 2246,7437 2376,7507 2505,7578 2612,7679 2687,7800 2762,7922 2801,8060 2801,8200 L 2801,8201 Z"/>
        <path fill="none" stroke="rgb(0,0,0)" stroke-width="212" stroke-linejoin="round" d="M 2801,8201 C 2801,8341 2762,8479 2687,8601 2612,8722 2505,8823 2376,8894 2246,8964 2100,9001 1951,9001 1801,9001 1655,8964 1525,8894 1396,8823 1289,8722 1214,8601 1139,8479 1100,8341 1100,8201 1100,8060 1139,7922 1214,7800 1289,7679 1396,7578 1525,7507 1655,7437 1801,7400 1950,7400 2100,7400 2246,7437 2376,7507 2505,7578 2612,7679 2687,7800 2762,7922 2801,8060 2801,8200 L 2801,8201 Z"/>
       </g>
      </g>
      <g class="com.sun.star.drawing.CustomShape">
       <g id="id4">
        <rect class="BoundingBox" stroke="none" fill="none" x="218" y="4918" width="4566" height="4566"/>
        <path fill="rgb(255,0,0)" stroke="none" d="M 4501,7201 C 4501,7552 4409,7897 4233,8201 4057,8505 3805,8757 3501,8933 3197,9109 2852,9201 2501,9201 2149,9201 1804,9109 1500,8933 1196,8757 944,8505 768,8201 592,7897 500,7552 500,7201 500,6849 592,6504 768,6200 944,5896 1196,5644 1500,5468 1804,5292 2149,5200 2500,5200 2852,5200 3197,5292 3501,5468 3805,5644 4057,5896 4233,6200 4409,6504 4501,6849 4501,7200 L 4501,7201 Z"/>
        <path fill="none" stroke="rgb(0,0,0)" stroke-width="564" stroke-linejoin="round" d="M 4501,7201 C 4501,7552 4409,7897 4233,8201 4057,8505 3805,8757 3501,8933 3197,9109 2852,9201 2501,9201 2149,9201 1804,9109 1500,8933 1196,8757 944,8505 768,8201 592,7897 500,7552 500,7201 500,6849 592,6504 768,6200 944,5896 1196,5644 1500,5468 1804,5292 2149,5200 2500,5200 2852,5200 3197,5292 3501,5468 3805,5644 4057,5896 4233,6200 4409,6504 4501,6849 4501,7200 L 4501,7201 Z"/>
       </g>
      </g>
      <g class="com.sun.star.drawing.LineShape">
       <g id="id5">
        <rect class="BoundingBox" stroke="none" fill="none" x="2235" y="4835" width="531" height="4831"/>
        <path fill="none" stroke="rgb(0,0,0)" stroke-width="529" stroke-linejoin="round" d="M 2500,5100 L 2500,9400"/>
       </g>
      </g>
      <g class="com.sun.star.drawing.LineShape">
       <g id="id6">
        <rect class="BoundingBox" stroke="none" fill="none" x="135" y="6935" width="4831" height="531"/>
        <path fill="none" stroke="rgb(0,0,0)" stroke-width="529" stroke-linejoin="round" d="M 4700,7200 L 400,7200"/>
       </g>
      </g>
      <g class="com.sun.star.drawing.CustomShape">
       <g id="id7">
        <rect class="BoundingBox" stroke="none" fill="none" x="794" y="194" width="4314" height="4414"/>
        <path fill="rgb(255,255,0)" stroke="none" d="M 900,2400 L 2589,2030 2950,300 3311,2030 5001,2400 3311,2770 2950,4501 2589,2770 900,2400 900,2400 Z"/>
        <path fill="none" stroke="rgb(255,128,0)" stroke-width="212" stroke-linejoin="round" d="M 900,2400 L 2589,2030 2950,300 3311,2030 5001,2400 3311,2770 2950,4501 2589,2770 900,2400 900,2400 Z"/>
       </g>
      </g>
      <g class="com.sun.star.drawing.CustomShape">
       <g id="id8">
        <rect class="BoundingBox" stroke="none" fill="none" x="5894" y="5994" width="3214" height="3314"/>
        <path fill="rgb(255,255,0)" stroke="none" d="M 6000,7650 L 7236,7377 7500,6100 7764,7377 9001,7650 7764,7923 7500,9201 7236,7923 6000,7650 6000,7650 Z"/>
        <path fill="none" stroke="rgb(255,128,0)" stroke-width="212" stroke-linejoin="round" d="M 6000,7650 L 7236,7377 7500,6100 7764,7377 9001,7650 7764,7923 7500,9201 7236,7923 6000,7650 6000,7650 Z"/>
       </g>
      </g>
      <g class="com.sun.star.drawing.CustomShape">
       <g id="id9">
        <rect class="BoundingBox" stroke="none" fill="none" x="6994" y="794" width="2714" height="2714"/>
        <path fill="rgb(255,255,0)" stroke="none" d="M 7100,2150 L 8130,1930 8350,900 8570,1930 9601,2150 8570,2370 8350,3401 8130,2370 7100,2150 7100,2150 Z"/>
        <path fill="none" stroke="rgb(255,128,0)" stroke-width="212" stroke-linejoin="round" d="M 7100,2150 L 8130,1930 8350,900 8570,1930 9601,2150 8570,2370 8350,3401 8130,2370 7100,2150 7100,2150 Z"/>
       </g>
      </g>
      <g class="com.sun.star.drawing.CustomShape">
       <g id="id10">
        <rect class="BoundingBox" stroke="none" fill="none" x="4594" y="3294" width="2714" height="2714"/>
        <path fill="rgb(255,255,0)" stroke="none" d="M 4700,4650 L 5730,4430 5950,3400 6170,4430 7201,4650 6170,4870 5950,5901 5730,4870 4700,4650 4700,4650 Z"/>
        <path fill="none" stroke="rgb(255,128,0)" stroke-width="212" stroke-linejoin="round" d="M 4700,4650 L 5730,4430 5950,3400 6170,4430 7201,4650 6170,4870 5950,5901 5730,4870 4700,4650 4700,4650 Z"/>
       </g>
      </g>
     </g>
    </g>
   </g>
  </g>
 </g>
</svg>