<?xml version="1.0" encoding="UTF-8"?>
<!DOCTYPE svg PUBLIC "-//W3C//DTD SVG 1.1//EN" "http://www.w3.org/Graphics/SVG/1.1/DTD/svg11.dtd">
<svg version="1.2" width="100mm" height="100mm" viewBox="0 0 10000 10000" preserveAspectRatio="xMidYMid" fill-rule="evenodd" stroke-width="28.222" stroke-linejoin="round" xmlns="http://www.w3.org/2000/svg" xmlns:ooo="http://xml.openoffice.org/svg/export" xmlns:xlink="http://www.w3.org/1999/xlink" xmlns:presentation="http://sun.com/xmlns/staroffice/presentation" xmlns:smil="http://www.w3.org/2001/SMIL20/" xmlns:anim="urn:oasis:names:tc:opendocument:xmlns:animation:1.0" xml:space="preserve">
 <defs class="ClipPathGroup">
  <clipPath id="presentation_clip_path" clipPathUnits="userSpaceOnUse">
   <rect x="0" y="0" width="10000" height="10000"/>
  </clipPath>
  <clipPath id="presentation_clip_path_shrink" clipPathUnits="userSpaceOnUse">
   <rect x="10" y="10" width="9980" height="9980"/>
  </clipPath>
 </defs>
 <defs class="TextShapeIndex">
  <g ooo:slide="id1" ooo:id-list="id3 id4 id5 id6"/>
 </defs>
 <defs class="EmbeddedBulletChars">
  <g id="bullet-char-template-57356" transform="scale(0.00048828125,-0.00048828125)">
   <path d="M 580,1141 L 1163,571 580,0 -4,571 580,1141 Z"/>
  </g>
  <g id="bullet-char-template-57354" transform="scale(0.00048828125,-0.00048828125)">
   <path d="M 8,1128 L 1137,1128 1137,0 8,0 8,1128 Z"/>
  </g>
  <g id="bullet-char-template-10146" transform="scale(0.00048828125,-0.00048828125)">
   <path d="M 174,0 L 602,739 174,1481 1456,739 174,0 Z M 1358,739 L 309,1346 659,739 1358,739 Z"/>
  </g>
  <g id="bullet-char-template-10132" transform="scale(0.00048828125,-0.00048828125)">
   <path d="M 2015,739 L 1276,0 717,0 1260,543 174,543 174,936 1260,936 717,1481 1274,1481 2015,739 Z"/>
  </g>
  <g id="bullet-char-template-10007" transform="scale(0.00048828125,-0.00048828125)">
   <path d="M 0,-2 C -7,14 -16,27 -25,37 L 356,567 C 262,823 215,952 215,954 215,979 228,992 255,992 264,992 276,990 289,987 310,991 331,999 354,1012 L 381,999 492,748 772,1049 836,1024 860,1049 C 881,1039 901,1025 922,1006 886,937 835,863 770,784 769,783 710,716 594,584 L 774,223 C 774,196 753,168 711,139 L 727,119 C 717,90 699,76 672,76 641,76 570,178 457,381 L 164,-76 C 142,-110 111,-127 72,-127 30,-127 9,-110 8,-76 1,-67 -2,-52 -2,-32 -2,-23 -1,-13 0,-2 Z"/>
  </g>
  <g id="bullet-char-template-10004" transform="scale(0.00048828125,-0.00048828125)">
   <path d="M 285,-33 C 182,-33 111,30 74,156 52,228 41,333 41,471 41,549 55,616 82,672 116,743 169,778 240,778 293,778 328,747 346,684 L 369,508 C 377,444 397,411 428,410 L 1163,1116 C 1174,1127 1196,1133 1229,1133 1271,1133 1292,1118 1292,1087 L 1292,965 C 1292,929 1282,901 1262,881 L 442,47 C 390,-6 338,-33 285,-33 Z"/>
  </g>
  <g id="bullet-char-template-9679" transform="scale(0.00048828125,-0.00048828125)">
   <path d="M 813,0 C 632,0 489,54 383,161 276,268 223,411 223,592 223,773 276,916 383,1023 489,1130 632,1184 813,1184 992,1184 1136,1130 1245,1023 1353,916 1407,772 1407,592 1407,412 1353,268 1245,161 1136,54 992,0 813,0 Z"/>
  </g>
  <g id="bullet-char-template-8226" transform="scale(0.00048828125,-0.00048828125)">
   <path d="M 346,457 C 273,457 209,483 155,535 101,586 74,649 74,723 74,796 101,859 155,911 209,963 273,989 346,989 419,989 480,963 531,910 582,859 608,796 608,723 608,648 583,586 532,535 482,483 420,457 346,457 Z"/>
  </g>
  <g id="bullet-char-template-8211" transform="scale(0.00048828125,-0.00048828125)">
   <path d="M -4,459 L 1135,459 1135,606 -4,606 -4,459 Z"/>
  </g>
  <g id="bullet-char-template-61548" transform="scale(0.00048828125,-0.00048828125)">
   <path d="M 173,740 C 173,903 231,1043 346,1159 462,1274 601,1332 765,1332 928,1332 1067,1274 1183,1159 1299,1043 1357,903 1357,740 1357,577 1299,437 1183,322 1067,206 928,148 765,148 601,148 462,206 346,322 231,437 173,577 173,740 Z"/>
  </g>
 </defs>
 <g>
  <g id="id2" class="Master_Slide">
   <g id="bg-id2" class="Background"/>
   <g id="bo-id2" class="BackgroundObjects"/>
  </g>
 </g>
 <g class="SlideGroup">
  <g>
   <g id="container-id1">
    <g id="id1" class="Slide" clip-path="url(#presentation_clip_path)">
     <g class="Page">
      <g class="com.sun.star.drawing.CustomShape">
       <g id="id3">
        <rect class="BoundingBox" stroke="none" fill="none" x="94" y="94" width="9813" height="9813"/>
        <path fill="rgb(255,255,255)" stroke="none" d="M 5000,9800 L 200,9800 200,200 9800,200 9800,9800 5000,9800 Z"/>
        <path fill="none" stroke="rgb(201,33,30)" stroke-width="212" stroke-linejoin="round" d="M 5000,9800 L 200,9800 200,200 9800,200 9800,9800 5000,9800 Z"/>
       </g>
      </g>
      <g class="com.sun.star.drawing.PolyPolygonShape">
       <g id="id4">
        <rect class="BoundingBox" stroke="none" fill="none" x="1475" y="1163" width="4427" height="7638"/>
        <path fill="rgb(201,33,30)" stroke="none" d="M 2784,1163 L 1475,1163 1475,8800 5900,8800 5900,7417 2784,7417 2784,1163 Z"/>
       </g>
      </g>
      <g class="Group">
       <g class="com.sun.star.drawing.PolyPolygonShape">
        <g id="id5">
         <rect class="BoundingBox" stroke="none" fill="none" x="3709" y="1342" width="2503" height="3343"/>
         <path fill="rgb(201,33,30)" stroke="none" d="M 4978,1342 L 4910,1344 4844,1349 4778,1358 4714,1370 4650,1386 4589,1404 4528,1426 4469,1451 4412,1480 4357,1511 4303,1545 4252,1583 4202,1623 4155,1667 4110,1713 4067,1762 4025,1817 3984,1875 3947,1937 3912,2001 3851,2141 3800,2292 3761,2456 3732,2632 3715,2819 3709,3018 3712,3162 3721,3301 3737,3434 3758,3560 3785,3681 3817,3795 3855,3902 3899,4003 3940,4081 3986,4154 4035,4224 4089,4289 4146,4349 4206,4405 4270,4456 4337,4503 4407,4544 4479,4580 4554,4612 4631,4637 4711,4658 4792,4672 4875,4681 4960,4684 5025,4682 5090,4677 5153,4668 5216,4656 5278,4640 5339,4621 5398,4599 5456,4573 5513,4545 5567,4513 5620,4479 5671,4442 5720,4401 5767,4358 5811,4312 5853,4264 5895,4209 5935,4151 5973,4090 6008,4025 6069,3886 6120,3735 6159,3571 6188,3396 6205,3210 6211,3013 6205,2818 6188,2632 6159,2457 6120,2293 6069,2141 6008,2002 5973,1937 5935,1875 5895,1817 5853,1762 5811,1715 5767,1669 5720,1627 5671,1587 5621,1549 5568,1515 5514,1483 5458,1455 5401,1429 5343,1407 5284,1387 5224,1371 5163,1359 5102,1350 5040,1344 4978,1342 Z M 4969,1904 L 5001,1905 5033,1908 5065,1913 5097,1919 5129,1928 5160,1938 5190,1950 5220,1964 5249,1980 5278,1997 5306,2016 5332,2036 5358,2058 5383,2082 5406,2107 5429,2134 5457,2170 5483,2209 5508,2250 5531,2294 5572,2390 5606,2496 5632,2610 5652,2732 5663,2862 5667,3000 5664,3128 5655,3250 5640,3365 5619,3472 5592,3572 5560,3664 5522,3748 5479,3825 5431,3893 5378,3953 5320,4004 5257,4046 5189,4079 5117,4103 5041,4118 4960,4123 4879,4118 4803,4103 4731,4079 4663,4046 4600,4004 4542,3953 4489,3893 4441,3825 4398,3749 4360,3665 4328,3573 4301,3474 4280,3367 4265,3253 4256,3132 4253,3004 4256,2879 4265,2760 4281,2648 4302,2543 4329,2446 4362,2355 4400,2272 4443,2197 4492,2130 4546,2071 4605,2021 4669,1979 4737,1947 4810,1923 4887,1909 4969,1904 Z"/>
        </g>
       </g>
       <g class="com.sun.star.drawing.PolyPolygonShape">
        <g id="id6">
         <rect class="BoundingBox" stroke="none" fill="none" x="6643" y="1426" width="2212" height="3176"/>
         <path fill="rgb(201,33,30)" stroke="none" d="M 6643,4600 L 7770,4600 7824,4599 7876,4595 7928,4588 7978,4579 8028,4567 8076,4552 8123,4535 8169,4515 8214,4493 8257,4469 8298,4441 8338,4412 8377,4380 8413,4345 8449,4308 8482,4269 8525,4209 8566,4147 8605,4081 8640,4011 8704,3862 8757,3701 8799,3527 8829,3344 8847,3150 8853,2947 8849,2771 8835,2605 8813,2449 8782,2303 8742,2167 8695,2042 8639,1928 8575,1825 8503,1734 8423,1653 8336,1585 8241,1529 8140,1484 8031,1452 7915,1433 7792,1426 6643,1426 6643,4600 Z M 7173,1970 L 7695,1970 7770,1974 7839,1985 7904,2004 7963,2031 8018,2065 8067,2108 8112,2158 8152,2215 8187,2281 8217,2355 8243,2436 8264,2526 8280,2623 8291,2729 8301,2965 8290,3209 8278,3321 8260,3426 8238,3523 8211,3613 8179,3695 8143,3769 8103,3835 8058,3893 8009,3942 7956,3983 7898,4015 7837,4038 7772,4052 7704,4056 7173,4056 7173,1970 Z"/>
        </g>
       </g>
      </g>
     </g>
    </g>
   </g>
  </g>
 </g>
</svg>