<?xml version="1.0" encoding="UTF-8"?>
<!DOCTYPE svg PUBLIC "-//W3C//DTD SVG 1.1//EN" "http://www.w3.org/Graphics/SVG/1.1/DTD/svg11.dtd">
<svg version="1.2" width="100mm" height="100mm" viewBox="0 0 10000 10000" preserveAspectRatio="xMidYMid" fill-rule="evenodd" stroke-width="28.222" stroke-linejoin="round" xmlns="http://www.w3.org/2000/svg" xmlns:ooo="http://xml.openoffice.org/svg/export" xmlns:xlink="http://www.w3.org/1999/xlink" xmlns:presentation="http://sun.com/xmlns/staroffice/presentation" xmlns:smil="http://www.w3.org/2001/SMIL20/" xmlns:anim="urn:oasis:names:tc:opendocument:xmlns:animation:1.0" xml:space="preserve">
 <defs class="ClipPathGroup">
  <clipPath id="presentation_clip_path" clipPathUnits="userSpaceOnUse">
   <rect x="0" y="0" width="10000" height="10000"/>
  </clipPath>
  <clipPath id="presentation_clip_path_shrink" clipPathUnits="userSpaceOnUse">
   <rect x="10" y="10" width="9980" height="9980"/>
  </clipPath>
 </defs>
 <defs class="TextShapeIndex">
  <g ooo:slide="id1" ooo:id-list="id3 id4 id5 id6 id7"/>
 </defs>
 <defs class="EmbeddedBulletChars">
  <g id="bullet-char-template-57356" transform="scale(0.00048828125,-0.00048828125)">
   <path d="M 580,1141 L 1163,571 580,0 -4,571 580,1141 Z"/>
  </g>
  <g id="bullet-char-template-57354" transform="scale(0.00048828125,-0.00048828125)">
   <path d="M 8,1128 L 1137,1128 1137,0 8,0 8,1128 Z"/>
  </g>
  <g id="bullet-char-template-10146" transform="scale(0.00048828125,-0.00048828125)">
   <path d="M 174,0 L 602,739 174,1481 1456,739 174,0 Z M 1358,739 L 309,1346 659,739 1358,739 Z"/>
  </g>
  <g id="bullet-char-template-10132" transform="scale(0.00048828125,-0.00048828125)">
   <path d="M 2015,739 L 1276,0 717,0 1260,543 174,543 174,936 1260,936 717,1481 1274,1481 2015,739 Z"/>
  </g>
  <g id="bullet-char-template-10007" transform="scale(0.00048828125,-0.00048828125)">
   <path d="M 0,-2 C -7,14 -16,27 -25,37 L 356,567 C 262,823 215,952 215,954 215,979 228,992 255,992 264,992 276,990 289,987 310,991 331,999 354,1012 L 381,999 492,748 772,1049 836,1024 860,1049 C 881,1039 901,1025 922,1006 886,937 835,863 770,784 769,783 710,716 594,584 L 774,223 C 774,196 753,168 711,139 L 727,119 C 717,90 699,76 672,76 641,76 570,178 457,381 L 164,-76 C 142,-110 111,-127 72,-127 30,-127 9,-110 8,-76 1,-67 -2,-52 -2,-32 -2,-23 -1,-13 0,-2 Z"/>
  </g>
  <g id="bullet-char-template-10004" transform="scale(0.00048828125,-0.00048828125)">
   <path d="M 285,-33 C 182,-33 111,30 74,156 52,228 41,333 41,471 41,549 55,616 82,672 116,743 169,778 240,778 293,778 328,747 346,684 L 369,508 C 377,444 397,411 428,410 L 1163,1116 C 1174,1127 1196,1133 1229,1133 1271,1133 1292,1118 1292,1087 L 1292,965 C 1292,929 1282,901 1262,881 L 442,47 C 390,-6 338,-33 285,-33 Z"/>
  </g>
  <g id="bullet-char-template-9679" transform="scale(0.00048828125,-0.00048828125)">
   <path d="M 813,0 C 632,0 489,54 383,161 276,268 223,411 223,592 223,773 276,916 383,1023 489,1130 632,1184 813,1184 992,1184 1136,1130 1245,1023 1353,916 1407,772 1407,592 1407,412 1353,268 1245,161 1136,54 992,0 813,0 Z"/>
  </g>
  <g id="bullet-char-template-8226" transform="scale(0.00048828125,-0.00048828125)">
   <path d="M 346,457 C 273,457 209,483 155,535 101,586 74,649 74,723 74,796 101,859 155,911 209,963 273,989 346,989 419,989 480,963 531,910 582,859 608,796 608,723 608,648 583,586 532,535 482,483 420,457 346,457 Z"/>
  </g>
  <g id="bullet-char-template-8211" transform="scale(0.00048828125,-0.00048828125)">
   <path d="M -4,459 L 1135,459 1135,606 -4,606 -4,459 Z"/>
  </g>
  <g id="bullet-char-template-61548" transform="scale(0.00048828125,-0.00048828125)">
   <path d="M 173,740 C 173,903 231,1043 346,1159 462,1274 601,1332 765,1332 928,1332 1067,1274 1183,1159 1299,1043 1357,903 1357,740 1357,577 1299,437 1183,322 1067,206 928,148 765,148 601,148 462,206 346,322 231,437 173,577 173,740 Z"/>
  </g>
 </defs>
 <g>
  <g id="id2" class="Master_Slide">
   <g id="bg-id2" class="Background"/>
   <g id="bo-id2" class="BackgroundObjects"/>
  </g>
 </g>
 <g class="SlideGroup">
  <g>
   <g id="container-id1">
    <g id="id1" class="Slide" clip-path="url(#presentation_clip_path)">
     <g class="Page">
      <g class="com.sun.star.drawing.CustomShape">
       <g id="id3">
        <rect class="BoundingBox" stroke="none" fill="none" x="2793" y="794" width="6615" height="6214"/>
        <path fill="rgb(51,51,51)" stroke="none" d="M 9301,3901 C 9301,4427 9153,4945 8872,5401 8591,5857 8187,6236 7701,6499 7214,6762 6662,6901 6101,6901 5539,6901 4987,6762 4500,6499 4014,6236 3610,5857 3329,5401 3048,4945 2900,4427 2900,3901 2900,3374 3048,2856 3329,2400 3610,1944 4014,1565 4500,1302 4987,1039 5539,900 6100,900 6662,900 7214,1039 7701,1302 8187,1565 8591,1944 8872,2400 9153,2856 9301,3374 9301,3900 L 9301,3901 Z"/>
        <path fill="none" stroke="rgb(0,0,0)" stroke-width="212" stroke-linejoin="round" d="M 9301,3901 C 9301,4427 9153,4945 8872,5401 8591,5857 8187,6236 7701,6499 7214,6762 6662,6901 6101,6901 5539,6901 4987,6762 4500,6499 4014,6236 3610,5857 3329,5401 3048,4945 2900,4427 2900,3901 2900,3374 3048,2856 3329,2400 3610,1944 4014,1565 4500,1302 4987,1039 5539,900 6100,900 6662,900 7214,1039 7701,1302 8187,1565 8591,1944 8872,2400 9153,2856 9301,3374 9301,3900 L 9301,3901 Z"/>
       </g>
      </g>
      <g class="com.sun.star.drawing.CustomShape">
       <g id="id4">
        <rect class="BoundingBox" stroke="none" fill="none" x="1093" y="1394" width="5715" height="5615"/>
        <path fill="rgb(128,128,128)" stroke="none" d="M 6701,4201 C 6701,4675 6574,5140 6333,5551 6091,5961 5744,6302 5326,6539 4908,6776 4433,6901 3951,6901 3468,6901 2993,6776 2575,6539 2157,6302 1810,5961 1568,5551 1327,5140 1200,4675 1200,4201 1200,3726 1327,3261 1568,2850 1810,2440 2157,2099 2575,1862 2993,1625 3468,1500 3950,1500 4433,1500 4908,1625 5326,1862 5744,2099 6091,2440 6333,2850 6574,3261 6701,3726 6701,4200 L 6701,4201 Z"/>
        <path fill="none" stroke="rgb(0,0,0)" stroke-width="212" stroke-linejoin="round" d="M 6701,4201 C 6701,4675 6574,5140 6333,5551 6091,5961 5744,6302 5326,6539 4908,6776 4433,6901 3951,6901 3468,6901 2993,6776 2575,6539 2157,6302 1810,5961 1568,5551 1327,5140 1200,4675 1200,4201 1200,3726 1327,3261 1568,2850 1810,2440 2157,2099 2575,1862 2993,1625 3468,1500 3950,1500 4433,1500 4908,1625 5326,1862 5744,2099 6091,2440 6333,2850 6574,3261 6701,3726 6701,4200 L 6701,4201 Z"/>
       </g>
      </g>
      <g class="com.sun.star.drawing.CustomShape">
       <g id="id5">
        <rect class="BoundingBox" stroke="none" fill="none" x="3794" y="3694" width="4714" height="4614"/>
        <path fill="rgb(178,178,178)" stroke="none" d="M 8401,6001 C 8401,6387 8297,6766 8099,7101 7902,7435 7618,7713 7276,7906 6934,8099 6546,8201 6151,8201 5755,8201 5367,8099 5025,7906 4683,7713 4399,7435 4202,7101 4004,6766 3900,6387 3900,6001 3900,5614 4004,5235 4202,4900 4399,4566 4683,4288 5025,4095 5367,3902 5755,3800 6150,3800 6546,3800 6934,3902 7276,4095 7618,4288 7902,4566 8099,4900 8297,5235 8401,5614 8401,6000 L 8401,6001 Z"/>
        <path fill="none" stroke="rgb(0,0,0)" stroke-width="212" stroke-linejoin="round" d="M 8401,6001 C 8401,6387 8297,6766 8099,7101 7902,7435 7618,7713 7276,7906 6934,8099 6546,8201 6151,8201 5755,8201 5367,8099 5025,7906 4683,7713 4399,7435 4202,7101 4004,6766 3900,6387 3900,6001 3900,5614 4004,5235 4202,4900 4399,4566 4683,4288 5025,4095 5367,3902 5755,3800 6150,3800 6546,3800 6934,3902 7276,4095 7618,4288 7902,4566 8099,4900 8297,5235 8401,5614 8401,6000 L 8401,6001 Z"/>
       </g>
      </g>
      <g class="com.sun.star.drawing.CustomShape">
       <g id="id6">
        <rect class="BoundingBox" stroke="none" fill="none" x="1194" y="4794" width="4114" height="4014"/>
        <path fill="rgb(204,204,204)" stroke="none" d="M 5201,6801 C 5201,7134 5111,7462 4940,7751 4768,8040 4522,8280 4226,8446 3929,8613 3593,8701 3251,8701 2908,8701 2572,8613 2275,8446 1979,8280 1733,8040 1561,7751 1390,7462 1300,7134 1300,6801 1300,6467 1390,6139 1561,5850 1733,5561 1979,5321 2275,5155 2572,4988 2908,4900 3250,4900 3593,4900 3929,4988 4226,5155 4522,5321 4768,5561 4940,5850 5111,6139 5201,6467 5201,6800 L 5201,6801 Z"/>
        <path fill="none" stroke="rgb(0,0,0)" stroke-width="212" stroke-linejoin="round" d="M 5201,6801 C 5201,7134 5111,7462 4940,7751 4768,8040 4522,8280 4226,8446 3929,8613 3593,8701 3251,8701 2908,8701 2572,8613 2275,8446 1979,8280 1733,8040 1561,7751 1390,7462 1300,7134 1300,6801 1300,6467 1390,6139 1561,5850 1733,5561 1979,5321 2275,5155 2572,4988 2908,4900 3250,4900 3593,4900 3929,4988 4226,5155 4522,5321 4768,5561 4940,5850 5111,6139 5201,6467 5201,6800 L 5201,6801 Z"/>
       </g>
      </g>
      <g class="com.sun.star.drawing.CustomShape">
       <g id="id7">
        <rect class="BoundingBox" stroke="none" fill="none" x="994" y="7294" width="1914" height="1814"/>
        <path fill="rgb(238,238,238)" stroke="none" d="M 2801,8201 C 2801,8341 2762,8479 2687,8601 2612,8722 2505,8823 2376,8894 2246,8964 2100,9001 1951,9001 1801,9001 1655,8964 1525,8894 1396,8823 1289,8722 1214,8601 1139,8479 1100,8341 1100,8201 1100,8060 1139,7922 1214,7800 1289,7679 1396,7578 1525,7507 1655,7437 1801,7400 1950,7400 2100,7400 2246,7437 2376,7507 2505,7578 2612,7679 2687,7800 2762,7922 2801,8060 2801,8200 L 2801,8201 Z"/>
        <path fill="none" stroke="rgb(0,0,0)" stroke-width="212" stroke-linejoin="round" d="M 2801,8201 C 2801,8341 2762,8479 2687,8601 2612,8722 2505,8823 2376,8894 2246,8964 2100,9001 1951,9001 1801,9001 1655,8964 1525,8894 1396,8823 1289,8722 1214,8601 1139,8479 1100,8341 1100,8201 1100,8060 1139,7922 1214,7800 1289,7679 1396,7578 1525,7507 1655,7437 1801,7400 1950,7400 2100,7400 2246,7437 2376,7507 2505,7578 2612,7679 2687,7800 2762,7922 2801,8060 2801,8200 L 2801,8201 Z"/>
       </g>
      </g>
     </g>
    </g>
   </g>
  </g>
 </g>
</svg>