<?xml version="1.0" encoding="UTF-8"?>
<!DOCTYPE svg PUBLIC "-//W3C//DTD SVG 1.1//EN" "http://www.w3.org/Graphics/SVG/1.1/DTD/svg11.dtd">
<svg version="1.2" width="100mm" height="100mm" viewBox="0 0 10000 10000" preserveAspectRatio="xMidYMid" fill-rule="evenodd" stroke-width="28.222" stroke-linejoin="round" xmlns="http://www.w3.org/2000/svg" xmlns:ooo="http://xml.openoffice.org/svg/export" xmlns:xlink="http://www.w3.org/1999/xlink" xmlns:presentation="http://sun.com/xmlns/staroffice/presentation" xmlns:smil="http://www.w3.org/2001/SMIL20/" xmlns:anim="urn:oasis:names:tc:opendocument:xmlns:animation:1.0" xml:space="preserve">
 <defs class="ClipPathGroup">
  <clipPath id="presentation_clip_path" clipPathUnits="userSpaceOnUse">
   <rect x="0" y="0" width="10000" height="10000"/>
  </clipPath>
  <clipPath id="presentation_clip_path_shrink" clipPathUnits="userSpaceOnUse">
   <rect x="10" y="10" width="9980" height="9980"/>
  </clipPath>
 </defs>
 <defs class="TextShapeIndex">
  <g ooo:slide="id1" ooo:id-list="id3 id4 id5"/>
 </defs>
 <defs class="EmbeddedBulletChars">
  <g id="bullet-char-template-57356" transform="scale(0.00048828125,-0.00048828125)">
   <path d="M 580,1141 L 1163,571 580,0 -4,571 580,1141 Z"/>
  </g>
  <g id="bullet-char-template-57354" transform="scale(0.00048828125,-0.00048828125)">
   <path d="M 8,1128 L 1137,1128 1137,0 8,0 8,1128 Z"/>
  </g>
  <g id="bullet-char-template-10146" transform="scale(0.00048828125,-0.00048828125)">
   <path d="M 174,0 L 602,739 174,1481 1456,739 174,0 Z M 1358,739 L 309,1346 659,739 1358,739 Z"/>
  </g>
  <g id="bullet-char-template-10132" transform="scale(0.00048828125,-0.00048828125)">
   <path d="M 2015,739 L 1276,0 717,0 1260,543 174,543 174,936 1260,936 717,1481 1274,1481 2015,739 Z"/>
  </g>
  <g id="bullet-char-template-10007" transform="scale(0.00048828125,-0.00048828125)">
   <path d="M 0,-2 C -7,14 -16,27 -25,37 L 356,567 C 262,823 215,952 215,954 215,979 228,992 255,992 264,992 276,990 289,987 310,991 331,999 354,1012 L 381,999 492,748 772,1049 836,1024 860,1049 C 881,1039 901,1025 922,1006 886,937 835,863 770,784 769,783 710,716 594,584 L 774,223 C 774,196 753,168 711,139 L 727,119 C 717,90 699,76 672,76 641,76 570,178 457,381 L 164,-76 C 142,-110 111,-127 72,-127 30,-127 9,-110 8,-76 1,-67 -2,-52 -2,-32 -2,-23 -1,-13 0,-2 Z"/>
  </g>
  <g id="bullet-char-template-10004" transform="scale(0.00048828125,-0.00048828125)">
   <path d="M 285,-33 C 182,-33 111,30 74,156 52,228 41,333 41,471 41,549 55,616 82,672 116,743 169,778 240,778 293,778 328,747 346,684 L 369,508 C 377,444 397,411 428,410 L 1163,1116 C 1174,1127 1196,1133 1229,1133 1271,1133 1292,1118 1292,1087 L 1292,965 C 1292,929 1282,901 1262,881 L 442,47 C 390,-6 338,-33 285,-33 Z"/>
  </g>
  <g id="bullet-char-template-9679" transform="scale(0.00048828125,-0.00048828125)">
   <path d="M 813,0 C 632,0 489,54 383,161 276,268 223,411 223,592 223,773 276,916 383,1023 489,1130 632,1184 813,1184 992,1184 1136,1130 1245,1023 1353,916 1407,772 1407,592 1407,412 1353,268 1245,161 1136,54 992,0 813,0 Z"/>
  </g>
  <g id="bullet-char-template-8226" transform="scale(0.00048828125,-0.00048828125)">
   <path d="M 346,457 C 273,457 209,483 155,535 101,586 74,649 74,723 74,796 101,859 155,911 209,963 273,989 346,989 419,989 480,963 531,910 582,859 608,796 608,723 608,648 583,586 532,535 482,483 420,457 346,457 Z"/>
  </g>
  <g id="bullet-char-template-8211" transform="scale(0.00048828125,-0.00048828125)">
   <path d="M -4,459 L 1135,459 1135,606 -4,606 -4,459 Z"/>
  </g>
  <g id="bullet-char-template-61548" transform="scale(0.00048828125,-0.00048828125)">
   <path d="M 173,740 C 173,903 231,1043 346,1159 462,1274 601,1332 765,1332 928,1332 1067,1274 1183,1159 1299,1043 1357,903 1357,740 1357,577 1299,437 1183,322 1067,206 928,148 765,148 601,148 462,206 346,322 231,437 173,577 173,740 Z"/>
  </g>
 </defs>
 <g>
  <g id="id2" class="Master_Slide">
   <g id="bg-id2" class="Background"/>
   <g id="bo-id2" class="BackgroundObjects"/>
  </g>
 </g>
 <g class="SlideGroup">
  <g>
   <g id="container-id1">
    <g id="id1" class="Slide" clip-path="url(#presentation_clip_path)">
     <g class="Page">
      <g class="com.sun.star.drawing.CustomShape">
       <g id="id3">
        <rect class="BoundingBox" stroke="none" fill="none" x="1399" y="1100" width="7879" height="4563"/>
        <path fill="rgb(141,29,117)" stroke="none" d="M 6683,4150 L 6681,4073 6674,3995 6663,3919 6648,3842 6628,3767 6604,3692 6575,3619 6543,3547 6506,3476 6466,3407 6421,3340 6373,3275 6321,3212 6266,3152 6207,3094 6145,3038 6080,2986 6012,2936 5941,2889 5867,2845 5792,2805 5713,2768 5633,2734 5551,2704 5468,2678 5383,2655 5297,2636 5210,2621 5122,2609 5033,2601 4944,2597 4856,2597 4767,2601 4678,2609 4590,2621 4503,2636 4417,2655 4332,2678 4249,2704 4167,2734 4087,2768 4009,2805 3933,2845 3859,2889 3788,2936 3720,2986 3655,3038 3593,3094 3534,3152 3479,3212 3427,3275 3379,3340 3334,3407 3294,3476 3257,3547 3225,3619 3196,3692 3172,3767 3152,3842 3137,3919 3126,3995 3119,4073 3117,4150 1400,4150 1404,3998 1417,3846 1439,3695 1469,3546 1508,3397 1555,3251 1611,3107 1675,2965 1747,2827 1826,2691 1913,2560 2008,2432 2110,2308 2219,2189 2334,2075 2456,1967 2584,1863 2718,1765 2857,1674 3001,1588 3150,1509 3303,1436 3460,1370 3621,1311 3785,1259 3952,1214 4121,1176 4292,1146 4465,1124 4638,1109 4813,1101 4987,1101 5162,1109 5335,1124 5508,1146 5679,1176 5848,1214 6015,1259 6179,1311 6340,1370 6497,1436 6650,1509 6799,1588 6943,1674 7082,1765 7216,1863 7344,1967 7466,2075 7581,2189 7690,2308 7792,2432 7887,2560 7974,2691 8053,2827 8125,2965 8189,3107 8245,3251 8292,3397 8331,3546 8361,3695 8383,3846 8396,3998 8400,4150 9276,4150 7542,5661 5808,4150 6683,4150 Z"/>
        <path fill="none" stroke="rgb(52,101,164)" d="M 6683,4150 L 6681,4073 6674,3995 6663,3919 6648,3842 6628,3767 6604,3692 6575,3619 6543,3547 6506,3476 6466,3407 6421,3340 6373,3275 6321,3212 6266,3152 6207,3094 6145,3038 6080,2986 6012,2936 5941,2889 5867,2845 5792,2805 5713,2768 5633,2734 5551,2704 5468,2678 5383,2655 5297,2636 5210,2621 5122,2609 5033,2601 4944,2597 4856,2597 4767,2601 4678,2609 4590,2621 4503,2636 4417,2655 4332,2678 4249,2704 4167,2734 4087,2768 4009,2805 3933,2845 3859,2889 3788,2936 3720,2986 3655,3038 3593,3094 3534,3152 3479,3212 3427,3275 3379,3340 3334,3407 3294,3476 3257,3547 3225,3619 3196,3692 3172,3767 3152,3842 3137,3919 3126,3995 3119,4073 3117,4150 1400,4150 1404,3998 1417,3846 1439,3695 1469,3546 1508,3397 1555,3251 1611,3107 1675,2965 1747,2827 1826,2691 1913,2560 2008,2432 2110,2308 2219,2189 2334,2075 2456,1967 2584,1863 2718,1765 2857,1674 3001,1588 3150,1509 3303,1436 3460,1370 3621,1311 3785,1259 3952,1214 4121,1176 4292,1146 4465,1124 4638,1109 4813,1101 4987,1101 5162,1109 5335,1124 5508,1146 5679,1176 5848,1214 6015,1259 6179,1311 6340,1370 6497,1436 6650,1509 6799,1588 6943,1674 7082,1765 7216,1863 7344,1967 7466,2075 7581,2189 7690,2308 7792,2432 7887,2560 7974,2691 8053,2827 8125,2965 8189,3107 8245,3251 8292,3397 8331,3546 8361,3695 8383,3846 8396,3998 8400,4150 9276,4150 7542,5661 5808,4150 6683,4150 Z"/>
       </g>
      </g>
      <g class="com.sun.star.drawing.CustomShape">
       <g id="id4">
        <rect class="BoundingBox" stroke="none" fill="none" x="718" y="4283" width="7879" height="4597"/>
        <path fill="rgb(141,29,117)" stroke="none" d="M 3312,5806 L 3313,5883 3319,5961 3329,6037 3343,6114 3362,6189 3385,6265 3413,6338 3445,6410 3481,6482 3520,6551 3564,6619 3611,6684 3662,6748 3717,6809 3775,6867 3836,6924 3900,6977 3968,7028 4038,7076 4112,7121 4186,7162 4265,7200 4344,7235 4426,7266 4509,7293 4593,7317 4679,7337 4766,7353 4854,7366 4943,7375 5031,7380 5119,7381 5209,7379 5298,7372 5386,7361 5473,7347 5559,7329 5644,7307 5728,7282 5810,7253 5891,7220 5969,7184 6046,7145 6120,7102 6192,7056 6260,7007 6326,6956 6389,6900 6448,6843 6504,6784 6557,6721 6606,6657 6652,6591 6692,6522 6730,6452 6763,6380 6793,6307 6818,6233 6839,6158 6855,6081 6867,6005 6875,5927 6878,5850 8595,5872 8589,6024 8574,6176 8550,6326 8518,6475 8477,6624 8428,6769 8371,6912 8305,7053 8231,7191 8150,7326 8062,7455 7965,7582 7862,7705 7751,7823 7635,7935 7511,8042 7382,8144 7247,8240 7107,8329 6962,8414 6812,8491 6658,8562 6500,8626 6338,8683 6174,8733 6006,8776 5837,8812 5665,8839 5492,8859 5319,8872 5144,8878 4970,8876 4795,8865 4622,8848 4449,8824 4279,8792 4110,8752 3944,8705 3780,8651 3620,8590 3464,8522 3312,8447 3164,8366 3021,8278 2883,8185 2750,8086 2624,7980 2503,7871 2390,7755 2282,7635 2182,7510 2088,7380 2003,7248 1926,7111 1855,6972 1793,6830 1739,6685 1694,6538 1657,6389 1629,6239 1608,6088 1597,5936 1595,5784 719,5773 2472,4284 4187,5817 3312,5806 Z"/>
        <path fill="none" stroke="rgb(52,101,164)" d="M 3312,5806 L 3313,5883 3319,5961 3329,6037 3343,6114 3362,6189 3385,6265 3413,6338 3445,6410 3481,6482 3520,6551 3564,6619 3611,6684 3662,6748 3717,6809 3775,6867 3836,6924 3900,6977 3968,7028 4038,7076 4112,7121 4186,7162 4265,7200 4344,7235 4426,7266 4509,7293 4593,7317 4679,7337 4766,7353 4854,7366 4943,7375 5031,7380 5119,7381 5209,7379 5298,7372 5386,7361 5473,7347 5559,7329 5644,7307 5728,7282 5810,7253 5891,7220 5969,7184 6046,7145 6120,7102 6192,7056 6260,7007 6326,6956 6389,6900 6448,6843 6504,6784 6557,6721 6606,6657 6652,6591 6692,6522 6730,6452 6763,6380 6793,6307 6818,6233 6839,6158 6855,6081 6867,6005 6875,5927 6878,5850 8595,5872 8589,6024 8574,6176 8550,6326 8518,6475 8477,6624 8428,6769 8371,6912 8305,7053 8231,7191 8150,7326 8062,7455 7965,7582 7862,7705 7751,7823 7635,7935 7511,8042 7382,8144 7247,8240 7107,8329 6962,8414 6812,8491 6658,8562 6500,8626 6338,8683 6174,8733 6006,8776 5837,8812 5665,8839 5492,8859 5319,8872 5144,8878 4970,8876 4795,8865 4622,8848 4449,8824 4279,8792 4110,8752 3944,8705 3780,8651 3620,8590 3464,8522 3312,8447 3164,8366 3021,8278 2883,8185 2750,8086 2624,7980 2503,7871 2390,7755 2282,7635 2182,7510 2088,7380 2003,7248 1926,7111 1855,6972 1793,6830 1739,6685 1694,6538 1657,6389 1629,6239 1608,6088 1597,5936 1595,5784 719,5773 2472,4284 4187,5817 3312,5806 Z"/>
       </g>
      </g>
      <g class="com.sun.star.drawing.CustomShape">
       <g id="id5">
        <rect class="BoundingBox" stroke="none" fill="none" x="4299" y="4299" width="1404" height="1304"/>
        <path fill="rgb(255,0,0)" stroke="none" d="M 5701,4951 C 5701,5065 5669,5177 5607,5276 5546,5375 5457,5457 5351,5514 5244,5571 5123,5601 5001,5601 4878,5601 4757,5571 4650,5514 4544,5457 4455,5375 4394,5276 4332,5177 4300,5065 4300,4951 4300,4836 4332,4724 4394,4625 4455,4526 4544,4444 4650,4387 4757,4330 4878,4300 5000,4300 5123,4300 5244,4330 5351,4387 5457,4444 5546,4526 5607,4625 5669,4724 5701,4836 5701,4950 L 5701,4951 Z"/>
        <path fill="none" stroke="rgb(52,101,164)" d="M 5701,4951 C 5701,5065 5669,5177 5607,5276 5546,5375 5457,5457 5351,5514 5244,5571 5123,5601 5001,5601 4878,5601 4757,5571 4650,5514 4544,5457 4455,5375 4394,5276 4332,5177 4300,5065 4300,4951 4300,4836 4332,4724 4394,4625 4455,4526 4544,4444 4650,4387 4757,4330 4878,4300 5000,4300 5123,4300 5244,4330 5351,4387 5457,4444 5546,4526 5607,4625 5669,4724 5701,4836 5701,4950 L 5701,4951 Z"/>
       </g>
      </g>
     </g>
    </g>
   </g>
  </g>
 </g>
</svg>